<?xml version="1.0" standalone="no"?>
<!DOCTYPE svg PUBLIC "-//W3C//DTD SVG 20010904//EN"
 "http://www.w3.org/TR/2001/REC-SVG-20010904/DTD/svg10.dtd">
<svg version="1.0" xmlns="http://www.w3.org/2000/svg"
 width="128.000000pt" height="128.000000pt" viewBox="0 0 128.000000 128.000000"
 preserveAspectRatio="xMidYMid meet">
<metadata>
Created by potrace 1.14, written by Peter Selinger 2001-2017
</metadata>
<g transform="translate(0.000000,128.000000) scale(0.100000,-0.100000)"
fill="#000000" stroke="none">
<path d="M468 1221 c-101 -24 -124 -33 -172 -70 -61 -48 -107 -100 -155 -178
-18 -29 -38 -53 -45 -53 -23 0 -48 -37 -41 -59 3 -12 11 -21 17 -21 5 0 -2
-14 -16 -31 -30 -35 -35 -89 -11 -109 14 -11 14 -15 0 -37 -20 -30 -16 -68 7
-68 25 0 29 -9 17 -42 -8 -26 -7 -37 10 -69 12 -21 21 -43 21 -48 0 -11 120
-130 141 -140 10 -4 11 -8 2 -12 -57 -27 -84 -86 -44 -97 11 -2 21 -15 23 -28
2 -15 9 -24 20 -23 13 1 15 -3 8 -21 -11 -30 8 -48 47 -43 16 2 33 -3 39 -12
10 -12 27 -7 113 33 97 46 103 48 153 39 67 -13 178 -7 248 12 l55 15 30 -34
c20 -24 39 -35 57 -35 38 0 58 10 58 28 0 9 10 26 22 39 17 18 19 26 10 35 -9
9 -6 18 12 37 22 24 30 46 27 79 0 6 -12 12 -26 12 -36 0 -32 23 12 67 45 47
74 110 67 148 -6 32 -29 81 -44 90 -5 3 -10 19 -10 35 0 22 4 27 18 24 33 -9
57 20 54 69 -1 41 1 45 26 50 28 6 52 40 52 76 0 23 -48 68 -87 82 -18 6 -32
14 -31 17 1 4 -1 26 -5 49 -13 80 -79 130 -217 166 -90 23 -131 25 -165 7 -22
-12 -30 -12 -48 0 -84 53 -106 55 -249 21z"/>
</g>
</svg>
